<svg width="363" height="400" viewBox="0 0 363 400" fill="none" xmlns="http://www.w3.org/2000/svg">
<g clip-path="url(#clip0_5250_42155)">
<path d="M237.824 185.13C243.239 187.156 248.772 188.437 254.181 189.243C273.598 192.123 291.674 188.764 298.406 190.578C298.641 190.641 298.87 190.724 299.08 190.802C299.217 190.839 299.349 190.895 299.476 190.971C299.627 191.033 299.759 191.089 299.885 191.165C299.879 191.185 299.899 191.19 299.894 191.21C300.074 191.322 300.229 191.447 300.359 191.587C305.232 196.49 302.741 206.587 274.924 220.083C269.203 222.86 263.705 224.942 258.579 226.499C245.879 230.354 232.699 221.17 232.57 207.898C232.506 201.315 233.816 193.59 237.824 185.13Z" fill="#2081D1"/>
<path d="M300.909 192.211C300.627 197.743 293.837 205.791 273.497 215.659C267.777 218.435 262.279 220.518 257.152 222.074C255.548 222.561 247.086 223.901 243.967 223.424C242.054 223.131 240.353 222.603 238.816 221.918C243.853 226.614 251.284 228.714 258.578 226.499C263.704 224.944 269.203 222.861 274.923 220.084C301.616 207.133 304.983 197.316 300.909 192.211Z" fill="#0F60A8"/>
<path d="M237.729 185.483L237.824 185.13C243.239 187.156 248.772 188.437 254.181 189.243C273.598 192.123 291.674 188.764 298.406 190.578C298.641 190.641 298.87 190.724 299.08 190.802C299.217 190.839 299.349 190.895 299.476 190.971C299.627 191.033 299.759 191.089 299.885 191.165C299.879 191.185 299.899 191.19 299.894 191.21C301.193 197.144 283.094 204.946 267.326 205.484C254.409 205.925 234.106 198.928 237.729 185.483Z" fill="#70CAF2"/>
<path d="M176.034 33.2755C172.008 33.2769 168.662 30.0689 168.515 26.0022C168.386 21.8377 171.652 18.3543 175.793 18.2253C177.791 18.1601 179.71 18.8676 181.182 20.2389C182.653 21.6088 183.503 23.4705 183.576 25.4792C183.649 27.4893 182.933 29.4072 181.56 30.8777C180.188 32.3489 178.322 33.1985 176.306 33.2707C176.217 33.2735 176.125 33.2755 176.034 33.2755ZM176.062 21.5692C176.01 21.5692 175.958 21.5692 175.906 21.5706C173.6 21.6428 171.789 23.5794 171.861 25.8891C171.944 28.194 173.906 30.0342 176.186 29.926C177.31 29.8851 178.349 29.4114 179.113 28.5943C179.874 27.7786 180.271 26.7145 180.231 25.5999C180.19 24.4832 179.718 23.4503 178.901 22.6887C178.123 21.9632 177.12 21.5692 176.062 21.5692Z" fill="#62A5D3"/>
<path d="M172.383 52.0853C172.31 52.0853 172.236 52.0804 172.163 52.0707C171.246 51.9514 170.6 51.1114 170.721 50.1945L173.182 31.4326C173.303 30.5156 174.142 29.8615 175.059 29.9905C175.976 30.1099 176.622 30.9498 176.502 31.8668L174.041 50.6287C173.929 51.4721 173.21 52.0853 172.383 52.0853Z" fill="#62A5D3"/>
<path d="M197.602 29.6569C197.274 29.6569 196.941 29.5605 196.651 29.3593C195.891 28.8329 195.702 27.7904 196.229 27.0301C197.612 25.0325 198.049 22.7741 197.459 20.6703C196.969 18.9217 195.806 17.4893 194.346 16.8422C193.502 16.4662 193.122 15.4771 193.497 14.6323C193.873 13.7875 194.86 13.408 195.707 13.7826C198.066 14.8321 199.926 17.0676 200.682 19.7665C201.547 22.8476 200.942 26.1048 198.98 28.9362C198.655 29.4051 198.132 29.6569 197.602 29.6569Z" fill="#62A5D3"/>
<path d="M209.318 30.7112C208.989 30.7112 208.655 30.6148 208.365 30.4123C207.605 29.8844 207.419 28.8412 207.946 28.0817C210.376 24.5886 211.14 20.6169 210.097 16.897C209.218 13.7604 207.109 11.1878 204.459 10.0141C203.613 9.64167 203.23 8.65256 203.605 7.80773C203.978 6.96081 204.967 6.57723 205.812 6.95457C209.367 8.52493 212.173 11.9057 213.32 15.9932C214.637 20.6925 213.704 25.6644 210.693 29.994C210.369 30.4608 209.848 30.7112 209.318 30.7112Z" fill="#62A5D3"/>
<path d="M151.259 23.8818C150.624 23.8818 150.018 23.519 149.737 22.9045C148.301 19.7665 148.279 16.4517 149.674 13.5717C150.894 11.0511 153.121 9.17969 155.63 8.56514C156.526 8.34596 157.433 8.89531 157.653 9.79425C157.873 10.6918 157.323 11.597 156.425 11.8176C154.874 12.197 153.477 13.3983 152.687 15.029C151.734 16.9955 151.768 19.2983 152.78 21.5117C153.165 22.3516 152.794 23.3456 151.954 23.7299C151.729 23.8332 151.492 23.8818 151.259 23.8818Z" fill="#62A5D3"/>
<path d="M139.527 22.8621C138.893 22.8621 138.286 22.4994 138.004 21.8862C135.809 17.0953 135.766 12.0416 137.879 7.65303C139.722 3.82838 143.078 0.985908 146.856 0.0474339C147.747 -0.168283 148.659 0.371357 148.884 1.26821C149.106 2.16576 148.559 3.07441 147.662 3.29637C144.841 3.99624 142.311 6.16798 140.895 9.10548C139.221 12.5805 139.276 16.6223 141.048 20.4899C141.433 21.332 141.063 22.3239 140.223 22.7095C139.997 22.8129 139.76 22.8621 139.527 22.8621Z" fill="#62A5D3"/>
<path d="M133.751 307.242C133.751 307.242 152.146 307.108 169.87 306.071C162.656 313.284 146.153 328.097 132.445 327.812C119.457 327.545 103.925 313.77 96.1589 305.987C114.336 307.092 133.751 307.242 133.751 307.242Z" fill="#2492DD"/>
<path d="M134.672 285.919C157.82 285.702 191.846 284.061 215.429 278.94L215.562 279.526C215.562 279.526 211.512 300.916 192.583 303.929C186.507 304.9 178.256 305.586 169.871 306.071C152.146 307.109 133.752 307.243 133.752 307.243C133.752 307.243 114.337 307.092 96.1604 305.987C88.294 305.502 80.662 304.832 74.9376 303.929C56.0078 300.916 51.9578 279.526 51.9578 279.526L52.1416 278.74C75.9586 284.045 110.939 285.719 134.421 285.92C134.505 285.936 134.588 285.919 134.672 285.919Z" fill="#1B72C1"/>
<path d="M248.133 92.6367C245.605 87.8326 242.626 83.3809 239.212 79.464C237.238 77.1709 235.112 75.0789 232.836 73.1874C206.575 51.3792 163.996 49.1866 140.229 48.9688C137.367 48.9522 126.94 48.9522 124.011 48.9855C100.21 49.2033 57.7655 51.4291 31.5714 73.1874C-0.831948 100.101 -4.69821 171.669 33.1612 180.339C33.1779 180.339 33.1779 180.339 33.1779 180.339C33.9644 180.523 34.7677 180.69 35.5882 180.807C48.4758 182.766 69.648 184.406 93.5323 185.326C94.0844 185.343 94.6199 185.36 95.1727 185.377L119.341 186.013C124.797 186.08 130.287 186.13 135.761 186.114C173.235 186.03 209.639 183.703 228.82 180.808C230.979 180.474 233.004 179.954 234.912 179.252C244.234 175.871 250.661 168.272 254.394 158.514C248.987 132.179 246.375 115.72 248.133 92.6367Z" fill="#2492DD"/>
<path d="M250.074 195.034C246.042 181.276 235.312 180.339 235.312 180.339L234.91 179.252C233.002 179.954 230.977 180.474 228.818 180.808C209.637 183.703 173.235 186.031 135.759 186.114C130.286 186.13 124.797 186.08 119.34 186.013L95.1712 185.377C94.6191 185.36 94.0836 185.344 93.5308 185.327C69.6465 184.406 48.4743 182.766 35.5867 180.808C34.7669 180.69 33.963 180.523 33.1764 180.339C33.1764 180.339 33.1764 180.339 33.1597 180.339C32.6742 180.406 22.926 181.804 18.4646 194.9C14.4652 206.64 14.1447 222.121 14.95 231.203C15.9419 242.397 20.6738 265.263 33.1764 272.293C37.7793 274.87 44.3736 276.995 52.1394 278.736C75.9564 284.042 110.937 285.716 134.419 285.917C134.503 285.933 134.586 285.917 134.67 285.917C157.818 285.699 191.845 284.058 215.427 278.937C223.595 277.163 230.524 274.971 235.311 272.293C243.964 267.423 248.884 257.698 251.428 246.585C252.567 241.647 253.371 236.431 253.537 231.237C253.896 220.079 253.01 205.052 250.074 195.034Z" fill="#2492DD"/>
<path d="M107.74 284.426C93.4094 283.333 78.8662 281.543 67.2119 278.737C60.0267 276.996 53.9256 274.871 49.6674 272.293C38.0998 265.263 33.7217 242.397 32.804 231.204C32.059 222.121 32.3559 206.64 36.0557 194.901C38.3814 187.522 42.2595 183.857 45.2837 182.051C41.6956 181.654 38.43 181.24 35.5882 180.808C34.7683 180.69 33.9644 180.523 33.1778 180.339C33.1778 180.339 33.1778 180.339 33.1612 180.339C32.6757 180.406 22.9275 181.804 18.4661 194.9C14.4666 206.64 14.1462 222.121 14.9515 231.203C15.9434 242.397 20.6753 265.263 33.1778 272.293C37.7807 274.87 44.375 276.995 52.1409 278.736C68.2191 282.317 89.3767 284.24 108.657 285.176C108.352 284.927 108.044 284.678 107.74 284.426Z" fill="#70CAF2"/>
<path d="M123.826 185.402C123.264 185.386 122.72 185.37 122.159 185.354C97.8764 184.462 76.3512 182.873 63.2486 180.977C62.4149 180.864 61.5978 180.701 60.798 180.523C60.798 180.523 60.798 180.523 60.7814 180.523C44.0893 176.882 35.3871 161.778 33.5573 143.719C32.777 120.425 39.254 104.286 44.4666 94.1314C48.0423 87.1654 53.3207 81.3653 59.1645 76.7409C85.7949 55.6672 128.949 53.5107 153.146 53.2998C156.124 53.2672 166.725 53.2672 169.635 53.2832C175.636 53.3352 182.818 53.5065 190.633 54.0572C172.037 49.8157 153.292 49.0909 140.229 48.9709C137.367 48.9542 126.94 48.9542 124.011 48.9875C100.21 49.2053 57.7648 51.4312 31.5714 73.1895C-0.831948 100.103 -4.69821 171.671 33.1612 180.341C33.1779 180.341 33.1779 180.341 33.1779 180.341C33.9644 180.525 34.7677 180.692 35.5882 180.81C48.4758 182.768 69.648 184.408 93.5322 185.329C94.0844 185.345 94.6199 185.362 95.1727 185.379L119.341 186.015C124.797 186.081 130.287 186.132 135.76 186.115C139.859 186.106 143.943 186.068 147.995 186.008L123.826 185.402Z" fill="#70CAF2"/>
<path d="M207.88 321.151C209.989 321.151 211.696 322.858 211.696 324.966C211.696 327.075 209.989 328.783 207.88 328.783C205.771 328.783 204.064 327.076 204.064 324.966C204.064 322.858 205.771 321.151 207.88 321.151Z" fill="#70CAF2"/>
<path d="M207.88 345.654C209.989 345.654 211.696 347.377 211.696 349.487C211.696 351.595 209.989 353.302 207.88 353.302C205.771 353.302 204.064 351.595 204.064 349.487C204.064 347.378 205.771 345.654 207.88 345.654Z" fill="#70CAF2"/>
<path d="M174.155 331.796C176.264 331.796 177.971 333.503 177.971 335.612C177.971 337.721 176.264 339.428 174.155 339.428C172.046 339.428 170.339 337.721 170.339 335.612C170.339 333.503 172.046 331.796 174.155 331.796Z" fill="#70CAF2"/>
<path d="M174.155 356.299C176.264 356.299 177.971 358.006 177.971 360.115C177.971 362.224 176.264 363.931 174.155 363.931C172.046 363.931 170.339 362.224 170.339 360.115C170.339 358.007 172.046 356.299 174.155 356.299Z" fill="#70CAF2"/>
<path d="M174.155 380.802C176.264 380.802 177.971 382.509 177.971 384.618C177.971 386.728 176.264 388.451 174.155 388.451C172.046 388.451 170.339 386.728 170.339 384.618C170.339 382.509 172.046 380.802 174.155 380.802Z" fill="#70CAF2"/>
<path d="M135.927 343.344C138.036 343.344 139.744 345.051 139.744 347.16C139.744 349.268 138.037 350.993 135.927 350.993C133.819 350.993 132.094 349.269 132.094 347.16C132.094 345.052 133.818 343.344 135.927 343.344Z" fill="#70CAF2"/>
<path d="M135.927 367.848C138.036 367.848 139.744 369.571 139.744 371.681C139.744 373.789 138.037 375.497 135.927 375.497C133.819 375.497 132.094 373.79 132.094 371.681C132.094 369.571 133.818 367.848 135.927 367.848Z" fill="#70CAF2"/>
<path d="M135.927 392.367C138.036 392.367 139.744 394.074 139.744 396.184C139.744 398.292 138.037 400 135.927 400C133.819 400 132.094 398.293 132.094 396.184C132.094 394.074 133.818 392.367 135.927 392.367Z" fill="#70CAF2"/>
<path d="M94.3015 331.796C96.4101 331.796 98.1345 333.503 98.1345 335.612C98.1345 337.721 96.4108 339.428 94.3015 339.428C92.1929 339.428 90.4858 337.721 90.4858 335.612C90.4858 333.503 92.1929 331.796 94.3015 331.796Z" fill="#70CAF2"/>
<path d="M94.3015 356.299C96.4101 356.299 98.1345 358.006 98.1345 360.115C98.1345 362.224 96.4108 363.931 94.3015 363.931C92.1929 363.931 90.4858 362.224 90.4858 360.115C90.4858 358.007 92.1929 356.299 94.3015 356.299Z" fill="#70CAF2"/>
<path d="M94.3015 380.802C96.4101 380.802 98.1345 382.509 98.1345 384.618C98.1345 386.728 96.4108 388.451 94.3015 388.451C92.1929 388.451 90.4858 386.728 90.4858 384.618C90.4858 382.509 92.1929 380.802 94.3015 380.802Z" fill="#70CAF2"/>
<path d="M62.5681 321.151C64.6774 321.151 66.3844 322.858 66.3844 324.966C66.3844 327.075 64.6774 328.783 62.5681 328.783C60.4595 328.783 58.7524 327.076 58.7524 324.966C58.7517 322.858 60.4595 321.151 62.5681 321.151Z" fill="#70CAF2"/>
<path d="M62.5681 345.654C64.6774 345.654 66.3844 347.377 66.3844 349.487C66.3844 351.595 64.6774 353.302 62.5681 353.302C60.4595 353.302 58.7524 351.595 58.7524 349.487C58.7517 347.378 60.4595 345.654 62.5681 345.654Z" fill="#70CAF2"/>
<path d="M253.154 158.578C252.562 158.578 251.996 158.539 251.434 158.494C247.6 164.864 242.147 169.759 234.91 172.247C233.002 172.912 230.978 173.403 228.818 173.72C209.637 176.46 173.235 178.661 135.759 178.741C130.286 178.756 124.797 178.709 119.34 178.646L95.1713 178.043C94.6192 178.027 94.0837 178.012 93.5309 177.996C69.6466 177.125 48.4744 175.573 35.5868 173.72C34.7669 173.609 33.963 173.451 33.1765 173.277C33.1765 173.277 33.1765 173.277 33.1598 173.277C15.249 169.396 6.68901 152.191 6.05919 132.445C5.46198 155.247 13.9034 175.933 33.1598 180.343C33.1765 180.343 33.1765 180.343 33.1765 180.343C33.963 180.527 34.7663 180.694 35.5868 180.812C48.4744 182.77 69.6466 184.41 93.5309 185.331C94.083 185.347 94.6185 185.364 95.1713 185.381L119.34 186.017C124.796 186.083 130.286 186.134 135.759 186.117C173.234 186.033 209.637 183.707 228.818 180.812C230.978 180.477 233.003 179.959 234.91 179.255C244.24 175.865 250.638 168.275 254.373 158.519C253.969 158.541 253.574 158.578 253.154 158.578Z" fill="#0F60A8"/>
<path d="M248.133 92.6367C258.895 113.073 261.573 139.802 254.393 158.514C218.843 161.995 187.846 162.028 162.355 160.556C128.814 159.016 101.533 153.192 97.5158 152.338C94.6705 151.735 92.059 150.681 89.7666 149.241C89.3983 149.007 89.03 148.773 88.679 148.521C88.3946 148.321 88.1262 148.12 87.8591 147.919C86.8714 147.149 85.9676 146.312 85.1311 145.408C84.7128 144.939 84.3112 144.454 83.9263 143.952C83.843 143.819 83.7425 143.685 83.6252 143.534C83.3235 143.099 83.0391 142.664 82.7547 142.195C82.7381 142.146 82.7041 142.095 82.6708 142.045C82.487 141.727 82.3191 141.409 82.152 141.074C81.9848 140.74 81.8343 140.405 81.6831 140.07C81.5326 139.734 81.3987 139.4 81.2815 139.049C81.1476 138.697 81.0304 138.345 80.9298 137.994C80.6114 136.94 80.411 135.835 80.2938 134.713C78.9211 120.738 81.0131 104.084 91.7753 96.034C96.4955 92.5021 107.475 87.4643 120.278 82.2427C157.92 66.8616 200.969 65.9238 239.213 79.464C242.626 83.3809 245.605 87.8326 248.133 92.6367Z" fill="#ECFFFF"/>
<path d="M245.389 87.85C227.496 79.9836 168.431 63.8485 96.3435 101.725C85.1429 107.61 83.2715 126.061 84.5942 138.881C84.9792 142.815 86.854 146.413 89.7659 149.241C89.3976 149.007 89.0292 148.773 88.6783 148.521C88.3939 148.321 88.1254 148.12 87.8584 147.919C86.8707 147.149 85.9669 146.312 85.1304 145.408C84.7121 144.939 84.3105 144.454 83.9255 143.952C83.8423 143.819 83.7417 143.685 83.6245 143.534C83.3228 143.099 83.0384 142.664 82.754 142.195C82.7374 142.146 82.7034 142.095 82.6701 142.045C82.4863 141.727 82.3184 141.409 82.1512 141.074C81.9841 140.74 81.8336 140.405 81.6824 140.07C81.5318 139.734 81.398 139.4 81.2807 139.049C81.1469 138.697 81.0297 138.345 80.9291 137.994C80.6107 136.94 80.4102 135.835 80.293 134.713C78.9203 120.738 81.0123 104.084 91.7746 96.034C96.4947 92.5021 107.474 87.4643 120.278 82.2427C157.919 66.8616 200.968 65.9238 239.212 79.464C240.876 81.427 243.79 85.2808 245.389 87.85Z" fill="#1B72C1"/>
<path d="M233.789 129.527C232.678 129.527 231.678 128.786 231.371 127.69C231.317 127.498 230.817 125.766 229.806 123.648C229.209 122.397 229.738 120.898 230.989 120.301C232.241 119.702 233.738 120.232 234.337 121.484C235.505 123.929 236.098 125.952 236.205 126.332C236.401 127.031 236.286 127.783 235.888 128.39C235.49 128.998 234.851 129.404 234.131 129.504C234.017 129.519 233.902 129.527 233.789 129.527ZM209.791 129.526C209.636 129.526 209.48 129.511 209.323 129.481C207.963 129.225 207.067 127.917 207.32 126.557C207.355 126.369 208.206 121.913 210.817 117.91C211.575 116.748 213.128 116.42 214.292 117.178C215.453 117.937 215.781 119.49 215.023 120.653C212.976 123.794 212.263 127.444 212.256 127.482C212.026 128.685 210.972 129.526 209.791 129.526ZM227.15 118.376C226.597 118.376 226.042 118.195 225.578 117.822C224.099 116.633 222.625 116.164 220.936 116.399C220.609 116.443 220.297 116.508 219.997 116.593C218.667 116.977 217.276 116.196 216.898 114.86C216.52 113.527 217.296 112.139 218.63 111.761C219.159 111.613 219.705 111.498 220.255 111.423C223.369 110.987 226.176 111.859 228.725 113.909C229.805 114.778 229.977 116.359 229.107 117.439C228.612 118.056 227.884 118.376 227.15 118.376Z" fill="#004C97"/>
<path d="M117.585 129.524C117.393 129.524 117.199 129.501 117.004 129.455C115.658 129.135 114.824 127.791 115.139 126.445C115.181 126.263 116.214 121.958 119.323 118.006C120.18 116.916 121.757 116.724 122.848 117.586C123.939 118.442 124.127 120.021 123.269 121.111C120.873 124.156 120.034 127.563 120.026 127.597C119.749 128.747 118.719 129.524 117.585 129.524ZM147.378 128.592C146.4 128.592 145.469 128.017 145.065 127.059C144.482 125.678 143.191 123.008 141.103 120.645C140.185 119.608 140.283 118.021 141.322 117.102C142.361 116.183 143.946 116.28 144.866 117.321C147.428 120.217 148.988 123.441 149.691 125.104C150.23 126.382 149.632 127.855 148.355 128.394C148.035 128.528 147.704 128.592 147.378 128.592ZM127.931 117.156C126.899 117.156 125.931 116.515 125.566 115.487C125.101 114.179 125.783 112.744 127.09 112.28C128.3 111.85 129.579 111.559 130.892 111.415C132.997 111.186 134.965 111.374 136.871 111.947C138.197 112.347 138.949 113.748 138.549 115.075C138.15 116.404 136.747 117.149 135.421 116.755C134.157 116.374 132.847 116.253 131.437 116.407C130.511 116.508 129.615 116.71 128.772 117.01C128.494 117.11 128.211 117.156 127.931 117.156Z" fill="#004C97"/>
<path d="M54.9473 230.969C50.1939 230.518 45.5077 230.685 41.0221 231.204C24.9209 233.078 11.2302 239.639 5.47237 239.639C5.27191 239.639 5.07076 239.622 4.88625 239.605C4.76903 239.605 4.65181 239.589 4.53459 239.555C4.40072 239.539 4.28349 239.522 4.16627 239.488C4.16627 239.472 4.14962 239.472 4.14962 239.455C3.98246 239.404 3.83194 239.338 3.69738 239.254C-1.23984 236.391 -1.42435 227.805 17.857 211.068C21.8211 207.626 25.7581 204.784 29.5113 202.442C38.8094 196.64 51.2912 201.131 54.2446 211.686C55.711 216.922 56.3262 223.364 54.9473 230.969Z" fill="#2492DD"/>
<path d="M54.9473 230.668V230.969C50.1939 230.518 45.5078 230.685 41.0221 231.204C24.921 233.078 11.2302 239.639 5.47242 239.639C5.27196 239.639 5.07081 239.622 4.88631 239.605C4.76908 239.605 4.65186 239.589 4.53464 239.555C4.40077 239.539 4.28355 239.522 4.16632 239.488C4.16632 239.472 4.14968 239.472 4.14968 239.455C1.8399 235.003 14.595 224.894 27.0511 221.077C37.2571 217.951 54.9473 219.17 54.9473 230.668Z" fill="#0F60A8"/>
<path d="M67.3527 62.9003C67.3527 62.9003 36.8075 79.2691 27.5684 104.676C27.5684 104.677 25.4591 69.428 67.3527 62.9003Z" fill="white"/>
<path d="M23.4879 201.336C23.4879 201.336 26.8069 193.386 29.537 190.169C31.8606 187.432 36.1167 185.048 39.2297 184.372C39.2297 184.372 30.5795 182.32 26.1673 188.052C24.1572 190.663 22.779 195.96 23.4879 201.336Z" fill="white"/>
<path d="M211.668 274.785C211.668 274.785 230.978 273.176 238.885 262.416C246.791 251.656 247.318 241.084 247.318 241.084C247.318 241.084 241.585 252.571 233.252 260.233C224.36 268.41 211.668 274.785 211.668 274.785Z" fill="#CEF8F4"/>
<path d="M45.7768 272.537C45.7768 272.537 35.6124 272.487 30.8992 265.917C26.2623 259.453 27.8383 254.171 27.8383 254.171C27.8383 254.171 29.9996 259.499 35.1276 264.477C39.6639 268.883 45.7768 272.537 45.7768 272.537Z" fill="white"/>
<path d="M183.839 301.074C183.839 301.074 195.679 302.161 202.026 296.16C208.271 290.255 207.129 284.83 207.129 284.83C207.129 284.83 203.914 289.883 197.292 294.257C191.434 298.126 183.839 301.074 183.839 301.074Z" fill="#B0EAED"/>
<path d="M81.6817 300.722C81.6817 300.722 70.1286 301.81 63.9353 295.809C57.8411 289.903 58.9564 284.478 58.9564 284.478C58.9564 284.478 62.093 289.532 68.5548 293.905C74.2703 297.774 81.6817 300.722 81.6817 300.722Z" fill="#B0EAED"/>
<path d="M149.166 318.183C149.166 318.183 140.002 325.366 129.865 323.918C119.891 322.494 116.556 317.521 116.556 317.521C116.556 317.521 123.287 319.874 132.365 319.865C140.395 319.858 149.166 318.183 149.166 318.183Z" fill="#CEF8F4"/>
<path d="M287.107 236.97L308.862 164.759C309.158 163.776 308.592 162.748 307.62 162.447C306.638 162.15 305.603 162.705 305.306 163.689L298.006 161.635C298.329 160.664 297.793 159.633 296.828 159.289C295.855 158.965 294.804 159.493 294.481 160.468L270.808 231.827C269.437 235.96 271.482 240.58 275.464 242.343C275.775 242.481 276.099 242.598 276.426 242.693C278.618 243.36 280.935 243.135 282.953 242.055C284.971 240.973 286.447 239.167 287.107 236.97Z" fill="#004C97"/>
<path d="M307.18 169.479C302.148 168.932 297.176 167.603 292.415 165.494C267.413 154.424 256.077 125.078 267.146 100.074C278.217 75.0699 307.564 63.7354 332.566 74.8056C357.569 85.8759 368.904 115.222 357.835 140.226C352.472 152.336 342.714 161.636 330.358 166.41C322.859 169.306 314.948 170.324 307.18 169.479ZM316.544 83.0993C300.845 81.3916 285.14 89.8691 278.413 105.063C270.095 123.853 278.613 145.908 297.403 154.227C306.503 158.256 316.631 158.498 325.918 154.914C335.204 151.327 342.537 144.34 346.567 135.236C354.886 116.447 346.367 94.3922 327.577 86.0729C323.98 84.4789 320.262 83.5037 316.544 83.0993ZM352.741 137.969L352.759 137.971L352.741 137.969Z" fill="#004C97"/>
<path d="M301.855 187.567C301.855 187.567 291.858 191.362 290.734 198.695C289.92 204.002 293.248 206.624 295.829 207.475C299.896 206.128 307.786 197.794 301.855 187.567Z" fill="#2492DD"/>
<path d="M194.193 208.019C204.437 208.019 212.744 218.052 212.744 230.423C212.744 242.795 204.437 252.827 194.193 252.827C183.936 252.827 175.628 242.795 175.628 230.423C175.628 218.052 183.936 208.019 194.193 208.019Z" fill="#2081D1"/>
<path d="M184.421 208.088C196.515 208.088 206.323 217.896 206.323 229.989C206.323 242.083 196.515 251.89 184.421 251.89C172.311 251.89 162.504 242.083 162.504 229.989C162.504 217.896 172.311 208.088 184.421 208.088Z" fill="white"/>
<path d="M179.176 233.668L189.58 240.688V226.899L179.176 219.879V233.668Z" fill="#0061A3"/>
<path d="M179.176 219.879C173.409 219.879 168.746 224.543 168.746 230.284C168.746 236.025 173.409 240.688 179.151 240.688V219.879H179.176Z" fill="#0089C5"/>
<path d="M189.58 240.688C195.321 240.688 199.984 236.025 199.984 230.284C199.984 224.543 195.321 219.879 189.58 219.879V240.688Z" fill="#0089C5"/>
</g>
<defs>
<clipPath id="clip0_5250_42155">
<rect width="362.666" height="400" fill="white"/>
</clipPath>
</defs>
</svg>
